# xmcd
#
# Track frame offsets:
# 150
# 21357
# 38885
# 59905
#
# Disc length: 1025 seconds
#
#
# Revision: 3
# Processed by: cddbd v1.5.1PL0 Copyright (c) Steve Scherf et al.
# Submitted via: FreeRIP 2.931 
#
DISCID=3603ff04
DTITLE=SHAZNA - Pink
DYEAR=1999
DGENRE=JPop
TTITLE0=Pink
TTITLE1=Jelly In The Merry-Go-Round
TTITLE2=Pink (Non-Vocal Version)
TTITLE3=Jelly In The Merry-Go-Round (Non-Vocal Version)
EXTD=YEAR: 1999 ID3G: 10
EXTT0=
EXTT1=
EXTT2=
EXTT3=
PLAYORDER=
